<svg viewBox="0 0 3134 700" fill="none" xmlns="http://www.w3.org/2000/svg"><path d="M150 250H155H350H550H685C642.5 105 507.5 0 350 0C192.5 0 57.5 105 15 250H150Z" fill="currentColor"/><path d="M575 300V350C575 392.5 542.5 425 500 425H435C402.5 425 375 405 365 372.5L350 340L335 375C325 405 297.5 425 265 425H200C157.5 425 125 392.5 125 350V300H5C2.5 317.5 0 332.5 0 350C0 542.5 157.5 700 350 700C542.5 700 700 542.5 700 350C700 332.5 697.5 317.5 695 300H575ZM497.5 495C457.5 530 405 550 350 550C335 550 325 540 325 525C325 510 335 500 350 500C392.5 500 432.5 485 465 455C475 445 490 447.5 500 457.5C510 470 510 485 497.5 495Z" fill="currentColor"/><path d="M872.2 457V244H917.8V457H872.2ZM1029.71 460.6C1013.31 460.6 999.012 457.2 986.812 450.4C974.612 443.4 965.112 433.6 958.312 421C951.512 408.4 948.112 393.6 948.112 376.6C948.112 359.6 951.512 344.9 958.312 332.5C965.112 319.9 974.612 310.1 986.812 303.1C999.012 296.1 1013.31 292.6 1029.71 292.6C1043.91 292.6 1056.61 295.1 1067.81 300.1C1079.21 305.1 1088.41 312.3 1095.41 321.7C1102.41 331.1 1106.71 342.4 1108.31 355.6L1061.81 357.7C1060.41 347.7 1056.81 340.2 1051.01 335.2C1045.41 330 1038.31 327.4 1029.71 327.4C1018.51 327.4 1009.81 331.7 1003.61 340.3C997.412 348.9 994.312 361 994.312 376.6C994.312 392.2 997.412 404.4 1003.61 413.2C1009.81 421.8 1018.51 426.1 1029.71 426.1C1038.31 426.1 1045.51 423.5 1051.31 418.3C1057.11 412.9 1060.61 404.8 1061.81 394L1108.31 395.8C1106.91 409 1102.71 420.5 1095.71 430.3C1088.91 439.9 1079.81 447.4 1068.41 452.8C1057.21 458 1044.31 460.6 1029.71 460.6ZM1206.08 460.6C1189.68 460.6 1175.38 457.2 1163.18 450.4C1150.98 443.4 1141.48 433.6 1134.68 421C1127.88 408.4 1124.48 393.6 1124.48 376.6C1124.48 359.6 1127.88 344.9 1134.68 332.5C1141.48 319.9 1150.98 310.1 1163.18 303.1C1175.38 296.1 1189.68 292.6 1206.08 292.6C1222.48 292.6 1236.78 296.1 1248.98 303.1C1261.18 310.1 1270.68 319.9 1277.48 332.5C1284.28 344.9 1287.68 359.6 1287.68 376.6C1287.68 393.6 1284.28 408.4 1277.48 421C1270.68 433.6 1261.18 443.4 1248.98 450.4C1236.78 457.2 1222.48 460.6 1206.08 460.6ZM1206.08 426.1C1217.28 426.1 1225.98 421.8 1232.18 413.2C1238.38 404.4 1241.48 392.2 1241.48 376.6C1241.48 361 1238.38 348.9 1232.18 340.3C1225.98 331.5 1217.28 327.1 1206.08 327.1C1194.88 327.1 1186.18 331.5 1179.98 340.3C1173.78 348.9 1170.68 361 1170.68 376.6C1170.68 392.2 1173.78 404.4 1179.98 413.2C1186.18 421.8 1194.88 426.1 1206.08 426.1ZM1315.7 457V296.2H1356.2L1358 343.3L1352.3 341.8C1353.9 329.8 1357.1 320.2 1361.9 313C1366.9 305.8 1373.1 300.6 1380.5 297.4C1387.9 294.2 1396 292.6 1404.8 292.6C1416.4 292.6 1426.2 295.1 1434.2 300.1C1442.4 305.1 1448.6 312.2 1452.8 321.4C1457.2 330.4 1459.4 341.1 1459.4 353.5V457H1414.4V368.5C1414.4 359.9 1413.7 352.6 1412.3 346.6C1410.9 340.6 1408.4 336.1 1404.8 333.1C1401.2 329.9 1396.2 328.3 1389.8 328.3C1380.4 328.3 1373.2 331.8 1368.2 338.8C1363.2 345.6 1360.7 355.5 1360.7 368.5V457H1315.7ZM1568.19 460.6C1551.79 460.6 1537.49 457.2 1525.29 450.4C1513.09 443.4 1503.59 433.6 1496.79 421C1489.99 408.4 1486.59 393.6 1486.59 376.6C1486.59 359.6 1489.99 344.9 1496.79 332.5C1503.59 319.9 1513.09 310.1 1525.29 303.1C1537.49 296.1 1551.79 292.6 1568.19 292.6C1584.59 292.6 1598.89 296.1 1611.09 303.1C1623.29 310.1 1632.79 319.9 1639.59 332.5C1646.39 344.9 1649.79 359.6 1649.79 376.6C1649.79 393.6 1646.39 408.4 1639.59 421C1632.79 433.6 1623.29 443.4 1611.09 450.4C1598.89 457.2 1584.59 460.6 1568.19 460.6ZM1568.19 426.1C1579.39 426.1 1588.09 421.8 1594.29 413.2C1600.49 404.4 1603.59 392.2 1603.59 376.6C1603.59 361 1600.49 348.9 1594.29 340.3C1588.09 331.5 1579.39 327.1 1568.19 327.1C1556.99 327.1 1548.29 331.5 1542.09 340.3C1535.89 348.9 1532.79 361 1532.79 376.6C1532.79 392.2 1535.89 404.4 1542.09 413.2C1548.29 421.8 1556.99 426.1 1568.19 426.1ZM1677.81 457V296.2H1718.31L1719.81 334.9L1715.61 333.1C1717.81 324.5 1721.11 317.2 1725.51 311.2C1730.11 305.2 1735.61 300.6 1742.01 297.4C1748.41 294.2 1755.41 292.6 1763.01 292.6C1776.41 292.6 1787.21 296.5 1795.41 304.3C1803.81 312.1 1809.21 322.6 1811.61 335.8L1805.91 336.1C1807.71 326.7 1810.81 318.8 1815.21 312.4C1819.81 305.8 1825.41 300.9 1832.01 297.7C1838.61 294.3 1846.01 292.6 1854.21 292.6C1865.41 292.6 1875.01 294.9 1883.01 299.5C1891.01 304.1 1897.21 311 1901.61 320.2C1906.01 329.2 1908.21 340.3 1908.21 353.5V457H1863.21V366.1C1863.21 353.5 1861.31 344.1 1857.51 337.9C1853.71 331.5 1847.51 328.3 1838.91 328.3C1833.51 328.3 1828.91 329.8 1825.11 332.8C1821.31 335.8 1818.31 340.2 1816.11 346C1814.11 351.6 1813.11 358.5 1813.11 366.7V457H1772.61V366.7C1772.61 354.3 1770.81 344.8 1767.21 338.2C1763.61 331.6 1757.41 328.3 1748.61 328.3C1743.21 328.3 1738.51 329.8 1734.51 332.8C1730.71 335.8 1727.81 340.2 1725.81 346C1723.81 351.8 1722.81 358.7 1722.81 366.7V457H1677.81ZM1991.82 460.6C1975.22 460.6 1961.62 456.8 1951.02 449.2C1940.62 441.4 1935.42 430.6 1935.42 416.8C1935.42 402.6 1939.82 391.7 1948.62 384.1C1957.62 376.3 1970.82 370.6 1988.22 367L2040.12 356.8C2040.12 346.4 2037.72 338.6 2032.92 333.4C2028.32 328 2021.62 325.3 2012.82 325.3C2004.22 325.3 1997.52 327.3 1992.72 331.3C1987.92 335.1 1984.82 340.8 1983.42 348.4L1938.12 346.3C1941.12 328.7 1949.02 315.4 1961.82 306.4C1974.82 297.2 1991.82 292.6 2012.82 292.6C2036.82 292.6 2054.82 298.3 2066.82 309.7C2079.02 321.1 2085.12 337.8 2085.12 359.8V414.7C2085.12 419.3 2085.82 422.4 2087.22 424C2088.82 425.4 2091.12 426.1 2094.12 426.1H2098.62V457C2097.22 457.4 2094.92 457.8 2091.72 458.2C2088.72 458.6 2085.72 458.8 2082.72 458.8C2076.32 458.8 2070.32 457.7 2064.72 455.5C2059.32 453.3 2054.92 449.6 2051.52 444.4C2048.12 439 2046.42 431.4 2046.42 421.6L2050.32 424.6C2048.32 431.8 2044.72 438.1 2039.52 443.5C2034.52 448.9 2027.92 453.1 2019.72 456.1C2011.72 459.1 2002.42 460.6 1991.82 460.6ZM2002.62 429.7C2010.02 429.7 2016.52 428.3 2022.12 425.5C2027.72 422.5 2032.12 418.2 2035.32 412.6C2038.52 407 2040.12 400.4 2040.12 392.8V385L2003.52 392.8C1996.32 394.2 1990.82 396.6 1987.02 400C1983.42 403.2 1981.62 407.4 1981.62 412.6C1981.62 418 1983.42 422.2 1987.02 425.2C1990.62 428.2 1995.82 429.7 2002.62 429.7ZM2277.2 461.8C2258.8 461.8 2243 458.7 2229.8 452.5C2216.6 446.3 2206.3 437.6 2198.9 426.4C2191.5 415.2 2187.3 402 2186.3 386.8L2232.2 384.7C2233.4 393.1 2235.8 400.3 2239.4 406.3C2243.2 412.1 2248.2 416.5 2254.4 419.5C2260.8 422.5 2268.6 424 2277.8 424C2285.4 424 2291.8 423.1 2297 421.3C2302.4 419.5 2306.5 416.8 2309.3 413.2C2312.1 409.4 2313.5 404.8 2313.5 399.4C2313.5 394.4 2312.3 390.1 2309.9 386.5C2307.5 382.7 2302.9 379.3 2296.1 376.3C2289.3 373.1 2279.3 370 2266.1 367C2247.9 362.8 2233.2 358.1 2222 352.9C2211 347.7 2203 341.2 2198 333.4C2193 325.4 2190.5 315.4 2190.5 303.4C2190.5 290.6 2193.6 279.4 2199.8 269.8C2206.2 260.2 2215.4 252.7 2227.4 247.3C2239.4 241.9 2253.7 239.2 2270.3 239.2C2287.9 239.2 2302.8 242.3 2315 248.5C2327.2 254.7 2336.7 263.2 2343.5 274C2350.5 284.8 2354.7 297.2 2356.1 311.2L2310.5 313.6C2309.9 306.2 2307.9 299.8 2304.5 294.4C2301.1 288.8 2296.5 284.5 2290.7 281.5C2284.9 278.5 2277.9 277 2269.7 277C2259.3 277 2251.1 279.3 2245.1 283.9C2239.3 288.5 2236.4 294.5 2236.4 301.9C2236.4 307.1 2237.7 311.5 2240.3 315.1C2243.1 318.5 2247.6 321.5 2253.8 324.1C2260.2 326.7 2269.2 329.2 2280.8 331.6C2300.6 335.6 2316.2 340.7 2327.6 346.9C2339.2 352.9 2347.4 360.1 2352.2 368.5C2357 376.9 2359.4 386.5 2359.4 397.3C2359.4 410.5 2356 422 2349.2 431.8C2342.6 441.4 2333.1 448.8 2320.7 454C2308.5 459.2 2294 461.8 2277.2 461.8ZM2454.56 457C2437.96 457 2425.76 453.2 2417.96 445.6C2410.16 437.8 2406.26 425.5 2406.26 408.7V258.4H2451.26V403.3C2451.26 411.1 2452.86 416.4 2456.06 419.2C2459.46 422 2464.46 423.4 2471.06 423.4H2493.56V457H2454.56ZM2380.46 329.8V296.2H2493.56V329.8H2380.46ZM2574.06 460.6C2557.46 460.6 2544.46 455.3 2535.06 444.7C2525.86 433.9 2521.26 418.9 2521.26 399.7V296.2H2566.26V389.2C2566.26 401.6 2568.16 410.7 2571.96 416.5C2575.76 422.1 2581.76 424.9 2589.96 424.9C2599.16 424.9 2606.26 421.8 2611.26 415.6C2616.46 409.2 2619.06 399.7 2619.06 387.1V296.2H2664.06V457H2622.96L2621.76 410.8L2627.46 412C2625.06 428 2619.36 440.1 2610.36 448.3C2601.36 456.5 2589.26 460.6 2574.06 460.6ZM2757.86 460.6C2744.26 460.6 2732.46 457.2 2722.46 450.4C2712.66 443.4 2705.06 433.7 2699.66 421.3C2694.46 408.7 2691.86 393.8 2691.86 376.6C2691.86 359.4 2694.56 344.6 2699.96 332.2C2705.36 319.6 2712.96 309.9 2722.76 303.1C2732.76 296.1 2744.46 292.6 2757.86 292.6C2769.26 292.6 2779.06 295 2787.26 299.8C2795.66 304.4 2801.96 310.8 2806.16 319V244H2851.16V457H2808.26L2807.36 433.3C2802.96 441.9 2796.36 448.6 2787.56 453.4C2778.96 458.2 2769.06 460.6 2757.86 460.6ZM2772.56 426.1C2779.76 426.1 2785.86 424.2 2790.86 420.4C2795.86 416.6 2799.66 411.1 2802.26 403.9C2804.86 396.5 2806.16 387.4 2806.16 376.6C2806.16 365.6 2804.86 356.5 2802.26 349.3C2799.66 341.9 2795.86 336.4 2790.86 332.8C2785.86 329 2779.76 327.1 2772.56 327.1C2761.96 327.1 2753.56 331.6 2747.36 340.6C2741.16 349.4 2738.06 361.4 2738.06 376.6C2738.06 391.6 2741.16 403.6 2747.36 412.6C2753.76 421.6 2762.16 426.1 2772.56 426.1ZM2886.6 457V296.2H2931.6V457H2886.6ZM2885.7 276.4V240.4H2932.2V276.4H2885.7ZM3040.94 460.6C3024.54 460.6 3010.24 457.2 2998.04 450.4C2985.84 443.4 2976.34 433.6 2969.54 421C2962.74 408.4 2959.34 393.6 2959.34 376.6C2959.34 359.6 2962.74 344.9 2969.54 332.5C2976.34 319.9 2985.84 310.1 2998.04 303.1C3010.24 296.1 3024.54 292.6 3040.94 292.6C3057.34 292.6 3071.64 296.1 3083.84 303.1C3096.04 310.1 3105.54 319.9 3112.34 332.5C3119.14 344.9 3122.54 359.6 3122.54 376.6C3122.54 393.6 3119.14 408.4 3112.34 421C3105.54 433.6 3096.04 443.4 3083.84 450.4C3071.64 457.2 3057.34 460.6 3040.94 460.6ZM3040.94 426.1C3052.14 426.1 3060.84 421.8 3067.04 413.2C3073.24 404.4 3076.34 392.2 3076.34 376.6C3076.34 361 3073.24 348.9 3067.04 340.3C3060.84 331.5 3052.14 327.1 3040.94 327.1C3029.74 327.1 3021.04 331.5 3014.84 340.3C3008.64 348.9 3005.54 361 3005.54 376.6C3005.54 392.2 3008.64 404.4 3014.84 413.2C3021.04 421.8 3029.74 426.1 3040.94 426.1Z" fill="currentColor"/></svg>